<?plantuml 1.2026.1?><svg xmlns="http://www.w3.org/2000/svg" xmlns:xlink="http://www.w3.org/1999/xlink" contentStyleType="text/css" data-diagram-type="SEQUENCE" height="869px" preserveAspectRatio="none" style="width:602px;height:869px;background:#FEFEFE;" version="1.1" viewBox="0 0 602 869" width="602px" zoomAndPan="magnify"><defs/><g><rect fill="#FEFEFE" height="869" style="stroke:none;stroke-width:1;" width="602" x="0" y="0"/><g class="participant-lifeline" data-entity-uid="part1" data-qualified-name="a" id="part1-lifeline"><g><title>UsuarioNo</title><rect fill="#000000" fill-opacity="0.00000" height="688.9688" width="8" x="33.7344" y="90.6094"/><line style="stroke:#181818;stroke-width:0.5;stroke-dasharray:5,5;" x1="37" x2="37" y1="90.6094" y2="779.5781"/></g></g><g class="participant-lifeline" data-entity-uid="part2" data-qualified-name="v" id="part2-lifeline"><g><title>LoginView</title><rect fill="#000000" fill-opacity="0.00000" height="688.9688" width="8" x="177.2144" y="90.6094"/><line style="stroke:#181818;stroke-width:0.5;stroke-dasharray:5,5;" x1="181.1074" x2="181.1074" y1="90.6094" y2="779.5781"/></g></g><g class="participant-lifeline" data-entity-uid="part3" data-qualified-name="c" id="part3-lifeline"><g><title>AuthController</title><rect fill="#000000" fill-opacity="0.00000" height="688.9688" width="8" x="288.9243" y="90.6094"/><line style="stroke:#181818;stroke-width:0.5;stroke-dasharray:5,5;" x1="292.8586" x2="292.8586" y1="90.6094" y2="779.5781"/></g></g><g class="participant-lifeline" data-entity-uid="part4" data-qualified-name="s" id="part4-lifeline"><g><title>AuthService</title><rect fill="#000000" fill-opacity="0.00000" height="688.9688" width="8" x="400.6343" y="90.6094"/><line style="stroke:#181818;stroke-width:0.5;stroke-dasharray:5,5;" x1="404.4167" x2="404.4167" y1="90.6094" y2="779.5781"/></g></g><g class="participant-lifeline" data-entity-uid="part5" data-qualified-name="e" id="part5-lifeline"><g><title>Profesor</title><rect fill="#000000" fill-opacity="0.00000" height="688.9688" width="8" x="500.2969" y="90.6094"/><line style="stroke:#181818;stroke-width:0.5;stroke-dasharray:5,5;" x1="503.5422" x2="503.5422" y1="90.6094" y2="779.5781"/></g></g><g class="participant-lifeline" data-entity-uid="part6" data-qualified-name="st" id="part6-lifeline"><g><title>AuthStore</title><rect fill="#000000" fill-opacity="0.00000" height="688.9688" width="8" x="566.5999" y="90.6094"/><line style="stroke:#181818;stroke-width:0.5;stroke-dasharray:5,5;" x1="570.0515" x2="570.0515" y1="90.6094" y2="779.5781"/></g></g><g class="participant participant-head" data-entity-uid="part1" data-qualified-name="a" id="part1-head"><text fill="#000000" font-family="Arial" font-size="11" lengthAdjust="spacing" textLength="56.7617" x="6.3535" y="75.2104">UsuarioNo</text><text fill="#000000" font-family="Arial" font-size="11" lengthAdjust="spacing" textLength="59.4688" x="5" y="88.0151">Registrado</text><ellipse cx="37.7344" cy="13.5" fill="#E2E2F0" rx="8" ry="8" style="stroke:#181818;stroke-width:0.5;"/><path d="M37.7344,21.5 L37.7344,48.5 M24.7344,29.5 L50.7344,29.5 M37.7344,48.5 L24.7344,63.5 M37.7344,48.5 L50.7344,63.5" fill="none" style="stroke:#181818;stroke-width:0.5;"/></g><g class="participant participant-tail" data-entity-uid="part1" data-qualified-name="a" id="part1-tail"><text fill="#000000" font-family="Arial" font-size="11" lengthAdjust="spacing" textLength="56.7617" x="6.3535" y="788.7886">UsuarioNo</text><text fill="#000000" font-family="Arial" font-size="11" lengthAdjust="spacing" textLength="59.4688" x="5" y="801.5933">Registrado</text><ellipse cx="37.7344" cy="812.6875" fill="#E2E2F0" rx="8" ry="8" style="stroke:#181818;stroke-width:0.5;"/><path d="M37.7344,820.6875 L37.7344,847.6875 M24.7344,828.6875 L50.7344,828.6875 M37.7344,847.6875 L24.7344,862.6875 M37.7344,847.6875 L50.7344,862.6875" fill="none" style="stroke:#181818;stroke-width:0.5;"/></g><g class="participant participant-head" data-entity-uid="part2" data-qualified-name="v" id="part2-head"><text fill="#000000" font-family="Arial" font-size="11" lengthAdjust="spacing" textLength="56.2139" x="150.1074" y="88.0151">LoginView</text><path d="M160.7144,49.8047 L160.7144,73.8047 M160.7144,61.8047 L177.7144,61.8047" fill="none" style="stroke:#181818;stroke-width:0.5;"/><ellipse cx="189.7144" cy="61.8047" fill="#E2E2F0" rx="12" ry="12" style="stroke:#181818;stroke-width:0.5;"/></g><g class="participant participant-tail" data-entity-uid="part2" data-qualified-name="v" id="part2-tail"><text fill="#000000" font-family="Arial" font-size="11" lengthAdjust="spacing" textLength="56.2139" x="150.1074" y="788.7886">LoginView</text><path d="M160.7144,795.3828 L160.7144,819.3828 M160.7144,807.3828 L177.7144,807.3828" fill="none" style="stroke:#181818;stroke-width:0.5;"/><ellipse cx="189.7144" cy="807.3828" fill="#E2E2F0" rx="12" ry="12" style="stroke:#181818;stroke-width:0.5;"/></g><g class="participant participant-head" data-entity-uid="part3" data-qualified-name="c" id="part3-head"><text fill="#000000" font-family="Arial" font-size="11" lengthAdjust="spacing" textLength="80.1313" x="249.8586" y="88.0151">AuthController</text><ellipse cx="292.9243" cy="61.8047" fill="#E2E2F0" rx="12" ry="12" style="stroke:#181818;stroke-width:0.5;"/><polygon fill="#181818" points="288.9243,49.8047,294.9243,44.8047,292.9243,49.8047,294.9243,54.8047,288.9243,49.8047" style="stroke:#181818;stroke-width:1;"/></g><g class="participant participant-tail" data-entity-uid="part3" data-qualified-name="c" id="part3-tail"><text fill="#000000" font-family="Arial" font-size="11" lengthAdjust="spacing" textLength="80.1313" x="249.8586" y="788.7886">AuthController</text><ellipse cx="292.9243" cy="807.3828" fill="#E2E2F0" rx="12" ry="12" style="stroke:#181818;stroke-width:0.5;"/><polygon fill="#181818" points="288.9243,795.3828,294.9243,790.3828,292.9243,795.3828,294.9243,800.3828,288.9243,795.3828" style="stroke:#181818;stroke-width:1;"/></g><g class="participant participant-head" data-entity-uid="part4" data-qualified-name="s" id="part4-head"><text fill="#000000" font-family="Arial" font-size="11" lengthAdjust="spacing" textLength="66.4351" x="368.4167" y="88.0151">AuthService</text><ellipse cx="404.6343" cy="61.8047" fill="#E2E2F0" rx="12" ry="12" style="stroke:#181818;stroke-width:0.5;"/><line style="stroke:#181818;stroke-width:0.5;" x1="392.6343" x2="416.6343" y1="75.8047" y2="75.8047"/></g><g class="participant participant-tail" data-entity-uid="part4" data-qualified-name="s" id="part4-tail"><text fill="#000000" font-family="Arial" font-size="11" lengthAdjust="spacing" textLength="66.4351" x="368.4167" y="788.7886">AuthService</text><ellipse cx="404.6343" cy="807.3828" fill="#E2E2F0" rx="12" ry="12" style="stroke:#181818;stroke-width:0.5;"/><line style="stroke:#181818;stroke-width:0.5;" x1="392.6343" x2="416.6343" y1="821.3828" y2="821.3828"/></g><g class="participant participant-head" data-entity-uid="part5" data-qualified-name="e" id="part5-head"><text fill="#000000" font-family="Arial" font-size="11" lengthAdjust="spacing" textLength="45.5093" x="478.5422" y="88.0151">Profesor</text><ellipse cx="504.2969" cy="61.8047" fill="#E2E2F0" rx="12" ry="12" style="stroke:#181818;stroke-width:0.5;"/><line style="stroke:#181818;stroke-width:0.5;" x1="492.2969" x2="516.2969" y1="75.8047" y2="75.8047"/></g><g class="participant participant-tail" data-entity-uid="part5" data-qualified-name="e" id="part5-tail"><text fill="#000000" font-family="Arial" font-size="11" lengthAdjust="spacing" textLength="45.5093" x="478.5422" y="788.7886">Profesor</text><ellipse cx="504.2969" cy="807.3828" fill="#E2E2F0" rx="12" ry="12" style="stroke:#181818;stroke-width:0.5;"/><line style="stroke:#181818;stroke-width:0.5;" x1="492.2969" x2="516.2969" y1="821.3828" y2="821.3828"/></g><g class="participant participant-head" data-entity-uid="part6" data-qualified-name="st" id="part6-head"><text fill="#000000" font-family="Arial" font-size="11" lengthAdjust="spacing" textLength="55.0967" x="540.0515" y="88.0151">AuthStore</text><ellipse cx="570.5999" cy="61.8047" fill="#E2E2F0" rx="12" ry="12" style="stroke:#181818;stroke-width:0.5;"/><line style="stroke:#181818;stroke-width:0.5;" x1="558.5999" x2="582.5999" y1="75.8047" y2="75.8047"/></g><g class="participant participant-tail" data-entity-uid="part6" data-qualified-name="st" id="part6-tail"><text fill="#000000" font-family="Arial" font-size="11" lengthAdjust="spacing" textLength="55.0967" x="540.0515" y="788.7886">AuthStore</text><ellipse cx="570.5999" cy="807.3828" fill="#E2E2F0" rx="12" ry="12" style="stroke:#181818;stroke-width:0.5;"/><line style="stroke:#181818;stroke-width:0.5;" x1="558.5999" x2="582.5999" y1="821.3828" y2="821.3828"/></g><g class="message" data-entity-1="part1" data-entity-2="part2" id="msg1"><polygon fill="#181818" points="169.2144,128.2188,179.2144,132.2188,169.2144,136.2188,173.2144,132.2188" style="stroke:#181818;stroke-width:1;"/><line style="stroke:#181818;stroke-width:1;" x1="37.7344" x2="175.2144" y1="132.2188" y2="132.2188"/><text fill="#000000" font-family="Arial" font-size="11" lengthAdjust="spacing" textLength="52.9321" x="44.7344" y="114.8198">1: solicita</text><text fill="#000000" font-family="Arial" font-size="11" lengthAdjust="spacing" textLength="43.8765" x="44.7344" y="127.6245">acceder</text></g><g class="message" data-entity-1="part2" data-entity-2="part1" id="msg2"><polygon fill="#181818" points="48.7344,167.8281,38.7344,171.8281,48.7344,175.8281,44.7344,171.8281" style="stroke:#181818;stroke-width:1;"/><line style="stroke:#181818;stroke-width:1;stroke-dasharray:2,2;" x1="42.7344" x2="180.2144" y1="171.8281" y2="171.8281"/><text fill="#000000" font-family="Arial" font-size="11" lengthAdjust="spacing" textLength="62.9976" x="54.7344" y="154.4292">2: presenta</text><text fill="#000000" font-family="Arial" font-size="11" lengthAdjust="spacing" textLength="56.9175" x="54.7344" y="167.2339">formulario</text></g><g class="message" data-entity-1="part1" data-entity-2="part2" id="msg3"><polygon fill="#181818" points="169.2144,220.2422,179.2144,224.2422,169.2144,228.2422,173.2144,224.2422" style="stroke:#181818;stroke-width:1;"/><line style="stroke:#181818;stroke-width:1;" x1="37.7344" x2="175.2144" y1="224.2422" y2="224.2422"/><text fill="#000000" font-family="Arial" font-size="11" lengthAdjust="spacing" textLength="66.564" x="44.7344" y="194.0386">3: introduce</text><text fill="#000000" font-family="Arial" font-size="11" lengthAdjust="spacing" textLength="40.3423" x="44.7344" y="206.8433">email y</text><text fill="#000000" font-family="Arial" font-size="11" lengthAdjust="spacing" textLength="61.5366" x="44.7344" y="219.6479">contrase&#241;a</text></g><g class="message" data-entity-1="part2" data-entity-2="part3" id="msg4"><polygon fill="#181818" points="280.9243,259.8516,290.9243,263.8516,280.9243,267.8516,284.9243,263.8516" style="stroke:#181818;stroke-width:1;"/><line style="stroke:#181818;stroke-width:1;" x1="181.2144" x2="286.9243" y1="263.8516" y2="263.8516"/><text fill="#000000" font-family="Arial" font-size="11" lengthAdjust="spacing" textLength="79.1216" x="188.2144" y="246.4526">4: login(email,</text><text fill="#000000" font-family="Arial" font-size="11" lengthAdjust="spacing" textLength="56.708" x="188.2144" y="259.2573">password)</text></g><g class="message" data-entity-1="part3" data-entity-2="part4" id="msg5"><polygon fill="#181818" points="392.6343,299.4609,402.6343,303.4609,392.6343,307.4609,396.6343,303.4609" style="stroke:#181818;stroke-width:1;"/><line style="stroke:#181818;stroke-width:1;" x1="292.9243" x2="398.6343" y1="303.4609" y2="303.4609"/><text fill="#000000" font-family="Arial" font-size="11" lengthAdjust="spacing" textLength="79.1216" x="299.9243" y="286.062">5: login(email,</text><text fill="#000000" font-family="Arial" font-size="11" lengthAdjust="spacing" textLength="56.708" x="299.9243" y="298.8667">password)</text></g><g class="message" data-entity-1="part4" data-entity-2="part5" id="msg6"><polygon fill="#181818" points="492.2969,351.875,502.2969,355.875,492.2969,359.875,496.2969,355.875" style="stroke:#181818;stroke-width:1;"/><line style="stroke:#181818;stroke-width:1;" x1="404.6343" x2="498.2969" y1="355.875" y2="355.875"/><text fill="#000000" font-family="Arial" font-size="11" lengthAdjust="spacing" textLength="57.1699" x="411.6343" y="325.6714">5.1: busca</text><text fill="#000000" font-family="Arial" font-size="11" lengthAdjust="spacing" textLength="67.5898" x="411.6343" y="338.4761">profesor por</text><text fill="#000000" font-family="Arial" font-size="11" lengthAdjust="spacing" textLength="30.3359" x="411.6343" y="351.2808">email</text></g><g class="message" data-entity-1="part5" data-entity-2="part4" id="msg7"><polygon fill="#181818" points="415.6343,391.4844,405.6343,395.4844,415.6343,399.4844,411.6343,395.4844" style="stroke:#181818;stroke-width:1;"/><line style="stroke:#181818;stroke-width:1;stroke-dasharray:2,2;" x1="409.6343" x2="503.2969" y1="395.4844" y2="395.4844"/><text fill="#000000" font-family="Arial" font-size="11" lengthAdjust="spacing" textLength="56.085" x="421.6343" y="378.0854">profesor o</text><text fill="#000000" font-family="Arial" font-size="11" lengthAdjust="spacing" textLength="20.0557" x="421.6343" y="390.8901">null</text></g><g class="message" data-entity-1="part4" data-entity-2="part5" id="msg8"><polygon fill="#181818" points="492.2969,443.8984,502.2969,447.8984,492.2969,451.8984,496.2969,447.8984" style="stroke:#181818;stroke-width:1;"/><line style="stroke:#181818;stroke-width:1;" x1="404.6343" x2="498.2969" y1="447.8984" y2="447.8984"/><text fill="#000000" font-family="Arial" font-size="11" lengthAdjust="spacing" textLength="73.1758" x="411.6343" y="417.6948">5.2: compara</text><text fill="#000000" font-family="Arial" font-size="11" lengthAdjust="spacing" textLength="75.6626" x="411.6343" y="430.4995">password con</text><text fill="#000000" font-family="Arial" font-size="11" lengthAdjust="spacing" textLength="35.3579" x="411.6343" y="443.3042">bcrypt</text></g><g class="message" data-entity-1="part4" data-entity-2="part3" id="msg9"><polygon fill="#181818" points="303.9243,483.5078,293.9243,487.5078,303.9243,491.5078,299.9243,487.5078" style="stroke:#181818;stroke-width:1;"/><line style="stroke:#181818;stroke-width:1;stroke-dasharray:2,2;" x1="297.9243" x2="403.6343" y1="487.5078" y2="487.5078"/><text fill="#000000" font-family="Arial" font-size="11" lengthAdjust="spacing" textLength="87.71" x="309.9243" y="470.1089">{ access_token,</text><text fill="#000000" font-family="Arial" font-size="11" lengthAdjust="spacing" textLength="34.4878" x="309.9243" y="482.9136">user }</text></g><g class="message" data-entity-1="part3" data-entity-2="part2" id="msg10"><polygon fill="#181818" points="192.2144,523.1172,182.2144,527.1172,192.2144,531.1172,188.2144,527.1172" style="stroke:#181818;stroke-width:1;"/><line style="stroke:#181818;stroke-width:1;stroke-dasharray:2,2;" x1="186.2144" x2="291.9243" y1="527.1172" y2="527.1172"/><text fill="#000000" font-family="Arial" font-size="11" lengthAdjust="spacing" textLength="87.71" x="198.2144" y="509.7183">{ access_token,</text><text fill="#000000" font-family="Arial" font-size="11" lengthAdjust="spacing" textLength="34.4878" x="198.2144" y="522.5229">user }</text></g><g class="message" data-entity-1="part2" data-entity-2="part6" id="msg11"><polygon fill="#181818" points="558.5999,562.7266,568.5999,566.7266,558.5999,570.7266,562.5999,566.7266" style="stroke:#181818;stroke-width:1;"/><line style="stroke:#181818;stroke-width:1;" x1="181.2144" x2="564.5999" y1="566.7266" y2="566.7266"/><text fill="#000000" font-family="Arial" font-size="11" lengthAdjust="spacing" textLength="87.7905" x="188.2144" y="549.3276">6: guarda token</text><text fill="#000000" font-family="Arial" font-size="11" lengthAdjust="spacing" textLength="50.73" x="188.2144" y="562.1323">y usuario</text></g><g class="message" data-entity-1="part2" data-entity-2="part1" id="msg12"><polygon fill="#181818" points="48.7344,602.3359,38.7344,606.3359,48.7344,610.3359,44.7344,606.3359" style="stroke:#181818;stroke-width:1;"/><line style="stroke:#181818;stroke-width:1;stroke-dasharray:2,2;" x1="42.7344" x2="180.2144" y1="606.3359" y2="606.3359"/><text fill="#000000" font-family="Arial" font-size="11" lengthAdjust="spacing" textLength="67.0957" x="54.7344" y="588.937">7: redirige a</text><text fill="#000000" font-family="Arial" font-size="11" lengthAdjust="spacing" textLength="119.48" x="54.7344" y="601.7417">SISTEMA_DISPONIBLE</text></g><path d="M297,619.3359 L297,667.3359 L409,667.3359 L409,629.3359 L399,619.3359 L297,619.3359" fill="#FEFFDD" style="stroke:#181818;stroke-width:0.5;"/><path d="M399,619.3359 L399,629.3359 L409,629.3359 L399,619.3359" fill="#FEFFDD" style="stroke:#181818;stroke-width:0.5;"/><text fill="#000000" font-family="Arial" font-size="11" lengthAdjust="spacing" textLength="91.6953" x="303" y="634.5464">POST /auth/login</text><text fill="#000000" font-family="Arial" font-size="11" lengthAdjust="spacing" textLength="71.7847" x="303" y="647.3511">JWT payload:</text><text fill="#000000" font-family="Arial" font-size="11" lengthAdjust="spacing" textLength="78.3159" x="303" y="660.1558">sub, email, rol</text><path d="M186,677.75 L186,763.75 L306,763.75 L306,687.75 L296,677.75 L186,677.75" fill="#FEFFDD" style="stroke:#181818;stroke-width:0.5;"/><path d="M296,677.75 L296,687.75 L306,687.75 L296,677.75" fill="#FEFFDD" style="stroke:#181818;stroke-width:0.5;"/><text fill="#000000" font-family="Arial" font-size="11" lengthAdjust="spacing" textLength="90.4761" x="192" y="692.9604">En caso de error</text><text fill="#000000" font-family="Arial" font-size="11" lengthAdjust="spacing" textLength="73.7505" x="192" y="705.7651">(credenciales</text><text fill="#000000" font-family="Arial" font-size="11" lengthAdjust="spacing" textLength="56.8423" x="192" y="718.5698">inv&#225;lidas):</text><text fill="#000000" font-family="Arial" font-size="11" lengthAdjust="spacing" textLength="96.0083" x="192" y="731.3745">muestra mensaje</text><text fill="#000000" font-family="Arial" font-size="11" lengthAdjust="spacing" textLength="56.8262" x="192" y="744.1792">y vuelve a</text><text fill="#000000" font-family="Arial" font-size="11" lengthAdjust="spacing" textLength="99.5156" x="192" y="756.9839">SolicitandoAcceso</text><?plantuml-src TLBBRjim4BphAnRk9G6I1kuJq260cpg0YpGnAhUz20ZMvDfXJP46brIW5lsOVaA_8J_MfImuRj50fzqPpSukXpV6RJ5W0qjKctNmoUaBRts0PvVJ_1MyPsXQORBnqhjuZGt191Yq_yShyvrWF2uAL56qHfyvOJ3-sjVk4wqDnu3QZm0Pi5ZccHWw65tvjN5V3DttI5ieKGhUmcYIujt5hh0KUbGLvAA9tGwiABH6KO_m7fa7loBskn_exn_4ra2FuX9Epw654iObiBT6cOYrGwL8KoXQE1KO1NvHmZOGYv30An-QPFDQ1m8lIp3PfqwAQaSD6WjTxVfDaEdXDsQvSr32VLM2pHiVzRIJMix8VE-3FYvKvh1mNZ_DuSoXp7akjfU9bPZQ3Yl3reTXVa6z_wosH-KTNBBsK4DsKxx9B_auH3gkTaiLkctCtC7u3yYdORwDVaDEJ2Mc03-pw-4CJp7wtJaAuqq9Qyc4HkWfjUiWxK9oSE-t9GJI9fWrWTYgPjLY-d5o-tvMpM-kP--kfaNXV2GGmbq4lv9K0CnlgWMSeJpoMNywQNtuke0jTjQZBgNaj3o1tK518YN1q91r_bLhXJjre92zX1ie11-aTQJ453abwIUMshZsuPSr6laugpU9ShwX8SVuZQJJGPl8jhA35DMGBwVz9D_8Fux_0m00?></g></svg>